<?xml version="1.0" encoding="UTF-8"?>
<svg id="Layer_1" xmlns="http://www.w3.org/2000/svg" version="1.1" viewBox="0 0 792 612">
  <!-- Generator: Adobe Illustrator 29.0.0, SVG Export Plug-In . SVG Version: 2.1.0 Build 186)  -->
  <defs>
    <style>
      .st0 {
        fill: #292929;
      }

      .st1 {
        stroke-width: 4.3px;
      }

      .st1, .st2 {
        fill: none;
        stroke: #292929;
      }

      .st2 {
        stroke-width: 4.3px;
      }
    </style>
  </defs>
  <path class="st2" d="M386.1,135.3c-88.6,0-149.3,76.3-149.3,149.5,44.6-1.6,135.3,25.9,147.7,148"/>
  <path class="st2" d="M384.6,135.3c88.6,0,149.3,76.3,149.3,149.5-44.6-1.6-135.3,25.9-147.7,148"/>
  <path class="st2" d="M385.3,304.1s1.3-87.1,40.4-108.3c37.3-20.2,76.2,0,76.2,0v91.8"/>
  <path class="st2" d="M385.3,304.1s-1.3-87.1-40.4-108.3c-37.3-20.2-76.2,0-76.2,0v91.8"/>
  <path class="st0" d="M392.1,466.9c0,5.5-3.4,9.9-7.7,9.9s-7.7-4.4-7.7-9.9,7.7-17,7.7-17c0,0,7.7,11.5,7.7,17Z"/>
  <path class="st1" d="M385.3,135.3v291.8"/>
</svg>