<?xml version="1.0" encoding="UTF-8"?>
<svg id="Layer_1" xmlns="http://www.w3.org/2000/svg" version="1.1" viewBox="0 0 792 612">
  <!-- Generator: Adobe Illustrator 29.0.0, SVG Export Plug-In . SVG Version: 2.1.0 Build 186)  -->
  <defs>
    <style>
      .st0 {
        fill: #fff;
        stroke-width: .2px;
      }

      .st0, .st1, .st2, .st3, .st4 {
        stroke: #292929;
      }

      .st0, .st1, .st4 {
        stroke-miterlimit: 10;
      }

      .st5, .st1 {
        fill: #292929;
      }

      .st2 {
        stroke-width: 4.3px;
      }

      .st2, .st3, .st4 {
        fill: none;
      }

      .st3 {
        stroke-width: 4.3px;
      }

      .st4 {
        stroke-width: .8px;
      }
    </style>
  </defs>
  <rect class="st0" x="643.2" y="456" width="39" height="38.8"/>
  <g>
    <path class="st3" d="M386.1,135.3c-88.6,0-149.3,76.3-149.3,149.5,44.6-1.6,135.3,25.9,147.7,148"/>
    <path class="st3" d="M384.6,135.3c88.6,0,149.3,76.3,149.3,149.5-44.6-1.6-135.3,25.9-147.7,148"/>
    <path class="st3" d="M385.3,304.1s1.3-87.1,40.4-108.3c37.3-20.2,76.2,0,76.2,0v91.8"/>
    <path class="st3" d="M385.3,304.1s-1.3-87.1-40.4-108.3c-37.3-20.2-76.2,0-76.2,0v91.8"/>
    <path class="st5" d="M392.1,466.9c0,5.5-3.4,9.9-7.7,9.9s-7.7-4.4-7.7-9.9,7.7-17,7.7-17c0,0,7.7,11.5,7.7,17Z"/>
    <path class="st2" d="M385.3,135.3v291.8"/>
  </g>
  <g>
    <path class="st4" d="M660,313c-8.3,0-14,6.7-14,13.1,4.2-.1,12.7,2.3,13.8,12.9"/>
    <path class="st4" d="M659.9,313c8.3,0,14,6.7,14,13.1-4.2-.1-12.7,2.3-13.8,12.9"/>
    <path class="st4" d="M660,327.7s.1-7.6,3.8-9.5c3.5-1.8,7.1,0,7.1,0v8"/>
    <path class="st4" d="M660,327.7s-.1-7.6-3.8-9.5c-3.5-1.8-7.1,0-7.1,0v8"/>
    <path class="st1" d="M660.6,341.9c0,.5-.3.9-.7.9s-.7-.4-.7-.9.7-1.5.7-1.5c0,0,.7,1,.7,1.5Z"/>
    <path class="st4" d="M660,313v25.5"/>
  </g>
  <g>
    <path class="st4" d="M662.8,460.4c-8.3,0-14,6.7-14,13.1,4.2-.1,12.7,2.3,13.8,12.9"/>
    <path class="st4" d="M662.7,460.4c8.3,0,14,6.7,14,13.1-4.2-.1-12.7,2.3-13.8,12.9"/>
    <path class="st4" d="M662.7,475.2s.1-7.6,3.8-9.5c3.5-1.8,7.1,0,7.1,0v8"/>
    <path class="st4" d="M662.7,475.2s-.1-7.6-3.8-9.5c-3.5-1.8-7.1,0-7.1,0v8"/>
    <path class="st1" d="M663.4,489.4c0,.5-.3.9-.7.9s-.7-.4-.7-.9.7-1.5.7-1.5c0,0,.7,1,.7,1.5Z"/>
    <path class="st4" d="M662.7,460.4v25.5"/>
  </g>
</svg>